<?xml version="1.0" encoding="UTF-8"?>
<svg width="600px" height="250px" viewBox="0 0 600 250" version="1.1" xmlns="http://www.w3.org/2000/svg" xmlns:xlink="http://www.w3.org/1999/xlink">
    <!-- Generator: Sketch 46.2 (44496) - http://www.bohemiancoding.com/sketch -->
    <title>keyboard</title>
    <desc>Created with Sketch.</desc>
    <defs>
        <rect id="path-1" x="185" y="100" width="36" height="92" rx="4"></rect>
        <rect id="path-2" x="263" y="100" width="36" height="92" rx="4"></rect>
        <rect id="path-3" x="0" y="0" width="36" height="92" rx="4"></rect>
        <rect id="path-4" x="0" y="0" width="36" height="92" rx="4"></rect>
        <rect id="path-5" x="0" y="0" width="36" height="92" rx="4"></rect>
        <rect id="path-6" x="0" y="0" width="36" height="92" rx="4"></rect>
        <rect id="path-7" x="0" y="0" width="36" height="92" rx="4"></rect>
        <rect id="path-8" x="0" y="0" width="36" height="92" rx="4"></rect>
        <rect id="path-9" x="0" y="0" width="36" height="92" rx="4"></rect>
        <rect id="path-10" x="0" y="0" width="36" height="92" rx="4"></rect>
        <rect id="path-11" x="0" y="0" width="36" height="92" rx="4"></rect>
        <rect id="path-12" x="0" y="0" width="36" height="92" rx="4"></rect>
        <rect id="path-13" x="0" y="0" width="36" height="92" rx="4"></rect>
        <rect id="path-14" x="0" y="0" width="36" height="92" rx="4"></rect>
    </defs>
    <g id="Page-1" stroke="none" stroke-width="1" fill="none" fill-rule="evenodd">
        <g id="keyboard">
            <g id="key">
                <use fill="#FFFFFF" fill-rule="evenodd" xlink:href="#path-1"></use>
                <rect stroke="#D1D3D4" stroke-width="1" x="185.5" y="100.5" width="35" height="91" rx="4"></rect>
            </g>
            <g id="key">
                <use fill="#FFFFFF" fill-rule="evenodd" xlink:href="#path-2"></use>
                <rect stroke="#D1D3D4" stroke-width="1" x="263.5" y="100.5" width="35" height="91" rx="4"></rect>
            </g>
            <g id="key-white" transform="translate(301.000000, 100.000000)">
                <g id="key">
                    <use fill="#FFFFFF" fill-rule="evenodd" xlink:href="#path-3"></use>
                    <rect stroke="#D1D3D4" stroke-width="1" x="0.5" y="0.5" width="35" height="91" rx="4"></rect>
                </g>
            </g>
            <g id="key-white" transform="translate(224.000000, 100.000000)">
                <g id="key">
                    <use fill="#FFFFFF" fill-rule="evenodd" xlink:href="#path-4"></use>
                    <rect stroke="#D1D3D4" stroke-width="1" x="0.5" y="0.5" width="35" height="91" rx="4"></rect>
                </g>
            </g>
            <g id="key-white" transform="translate(340.000000, 100.000000)">
                <g id="key">
                    <use fill="#FFFFFF" fill-rule="evenodd" xlink:href="#path-5"></use>
                    <rect stroke="#D1D3D4" stroke-width="1" x="0.5" y="0.5" width="35" height="91" rx="4"></rect>
                </g>
            </g>
            <g id="key-white" transform="translate(69.000000, 100.000000)">
                <g id="key">
                    <use fill="#FFFFFF" fill-rule="evenodd" xlink:href="#path-6"></use>
                    <rect stroke="#D1D3D4" stroke-width="1" x="0.5" y="0.5" width="35" height="91" rx="4"></rect>
                </g>
            </g>
            <g id="key-white" transform="translate(108.000000, 100.000000)">
                <g id="key">
                    <use fill="#FFFFFF" fill-rule="evenodd" xlink:href="#path-7"></use>
                    <rect stroke="#D1D3D4" stroke-width="1" x="0.5" y="0.5" width="35" height="91" rx="4"></rect>
                </g>
            </g>
            <g id="key-white" transform="translate(30.000000, 100.000000)">
                <g id="key">
                    <use fill="#FFFFFF" fill-rule="evenodd" xlink:href="#path-8"></use>
                    <rect stroke="#D1D3D4" stroke-width="1" x="0.5" y="0.5" width="35" height="91" rx="4"></rect>
                </g>
            </g>
            <g id="key-white" transform="translate(146.000000, 100.000000)">
                <g id="key">
                    <use fill="#FFFFFF" fill-rule="evenodd" xlink:href="#path-9"></use>
                    <rect stroke="#D1D3D4" stroke-width="1" x="0.5" y="0.5" width="35" height="91" rx="4"></rect>
                </g>
            </g>
            <g id="key-white" transform="translate(379.000000, 100.000000)">
                <g id="key">
                    <use fill="#FFFFFF" fill-rule="evenodd" xlink:href="#path-10"></use>
                    <rect stroke="#D1D3D4" stroke-width="1" x="0.5" y="0.5" width="35" height="91" rx="4"></rect>
                </g>
            </g>
            <g id="key-black" transform="translate(213.000000, 78.000000)" fill="#818181">
                <rect id="key" x="0" y="0" width="18" height="46" rx="4"></rect>
            </g>
            <g id="key-black" transform="translate(329.000000, 78.000000)" fill="#818181">
                <rect id="key" x="0" y="0" width="18" height="46" rx="4"></rect>
            </g>
            <g id="key-black" transform="translate(251.000000, 78.000000)" fill="#818181">
                <rect id="key" x="0" y="0" width="18" height="46" rx="4"></rect>
            </g>
            <g id="key-black" transform="translate(367.000000, 78.000000)" fill="#818181">
                <rect id="key" x="0" y="0" width="18" height="46" rx="4"></rect>
            </g>
            <g id="key-black" transform="translate(98.000000, 78.000000)" fill="#818181">
                <rect id="key" x="0" y="0" width="18" height="46" rx="4"></rect>
            </g>
            <g id="key-black" transform="translate(59.000000, 78.000000)" fill="#818181">
                <rect id="key" x="0" y="0" width="18" height="46" rx="4"></rect>
            </g>
            <g id="key-black" transform="translate(175.000000, 78.000000)" fill="#818181">
                <rect id="key" x="0" y="0" width="18" height="46" rx="4"></rect>
            </g>
            <g id="key-white" transform="translate(495.000000, 100.000000)">
                <g id="key">
                    <use fill="#FFFFFF" fill-rule="evenodd" xlink:href="#path-11"></use>
                    <rect stroke="#D1D3D4" stroke-width="1" x="0.5" y="0.5" width="35" height="91" rx="4"></rect>
                </g>
            </g>
            <g id="key-white" transform="translate(534.000000, 100.000000)">
                <g id="key">
                    <use fill="#FFFFFF" fill-rule="evenodd" xlink:href="#path-12"></use>
                    <rect stroke="#D1D3D4" stroke-width="1" x="0.5" y="0.5" width="35" height="91" rx="4"></rect>
                </g>
            </g>
            <g id="key-white" transform="translate(418.000000, 100.000000)">
                <g id="key">
                    <use fill="#FFFFFF" fill-rule="evenodd" xlink:href="#path-13"></use>
                    <rect stroke="#D1D3D4" stroke-width="1" x="0.5" y="0.5" width="35" height="91" rx="4"></rect>
                </g>
            </g>
            <g id="key-white" transform="translate(456.000000, 100.000000)">
                <g id="key">
                    <use fill="#FFFFFF" fill-rule="evenodd" xlink:href="#path-14"></use>
                    <rect stroke="#D1D3D4" stroke-width="1" x="0.5" y="0.5" width="35" height="91" rx="4"></rect>
                </g>
            </g>
            <g id="key-black" transform="translate(445.000000, 78.000000)" fill="#818181">
                <rect id="key" x="0" y="0" width="18" height="46" rx="4"></rect>
            </g>
            <g id="key-black" transform="translate(483.000000, 78.000000)" fill="#818181">
                <rect id="key" x="0" y="0" width="18" height="46" rx="4"></rect>
            </g>
            <g id="key-black" transform="translate(525.000000, 78.000000)" fill="#818181">
                <rect id="key" x="0" y="0" width="18" height="46" rx="4"></rect>
            </g>
        </g>
    </g>
</svg>