<?xml version="1.0" encoding="UTF-8"?>
<svg width="600px" height="250px" viewBox="0 0 600 250" version="1.1" xmlns="http://www.w3.org/2000/svg" xmlns:xlink="http://www.w3.org/1999/xlink">
    <!-- Generator: Sketch 46.2 (44496) - http://www.bohemiancoding.com/sketch -->
    <title>keyboard2</title>
    <desc>Created with Sketch.</desc>
    <defs></defs>
    <g id="Page-1" stroke="none" stroke-width="1" fill="none" fill-rule="evenodd">
        <g id="keyboard2">
            <rect id="Rectangle" fill="#FFFFFF" x="33" y="65" width="35" height="121" rx="4"></rect>
            <rect id="Rectangle" fill="#FFFFFF" x="71.5384615" y="65" width="35" height="121" rx="4"></rect>
            <rect id="Rectangle" fill="#FFFFFF" x="110.076923" y="65" width="35" height="121" rx="4"></rect>
            <rect id="Rectangle" fill="#FFFFFF" x="148.615385" y="65" width="35" height="121" rx="4"></rect>
            <rect id="Rectangle" fill="#FFFFFF" x="187.153846" y="65" width="35" height="121" rx="4"></rect>
            <rect id="Rectangle" fill="#FFFFFF" x="225.692308" y="65" width="35" height="121" rx="4"></rect>
            <rect id="Rectangle" fill="#FFFFFF" x="264.230769" y="65" width="35" height="121" rx="4"></rect>
            <rect id="Rectangle" fill="#FFFFFF" x="302.769231" y="65" width="35" height="121" rx="4"></rect>
            <rect id="Rectangle" fill="#FFFFFF" x="341.307692" y="65" width="35" height="121" rx="4"></rect>
            <rect id="Rectangle" fill="#FFFFFF" x="379.846154" y="65" width="35" height="121" rx="4"></rect>
            <rect id="Rectangle" fill="#FFFFFF" x="418.384615" y="65" width="35" height="121" rx="4"></rect>
            <rect id="Rectangle" fill="#FFFFFF" x="456.923077" y="65" width="35" height="121" rx="4"></rect>
            <rect id="Rectangle" fill="#FFFFFF" x="495.461538" y="65" width="35" height="121" rx="4"></rect>
            <rect id="Rectangle" fill="#FFFFFF" x="534" y="65" width="35" height="121" rx="4"></rect>
            <rect id="Rectangle" fill="#383838" x="60" y="59" width="20" height="65" rx="4"></rect>
            <rect id="Rectangle" fill="#383838" x="99" y="59" width="20" height="65" rx="4"></rect>
            <rect id="Rectangle" fill="#383838" x="176" y="59" width="20" height="65" rx="4"></rect>
            <rect id="Rectangle" fill="#383838" x="214" y="59" width="20" height="65" rx="4"></rect>
            <rect id="Rectangle" fill="#383838" x="253" y="59" width="20" height="65" rx="4"></rect>
            <rect id="Rectangle" fill="#383838" x="330" y="59" width="20" height="65" rx="4"></rect>
            <rect id="Rectangle" fill="#383838" x="368" y="59" width="20" height="65" rx="4"></rect>
            <rect id="Rectangle" fill="#383838" x="445" y="59" width="20" height="65" rx="4"></rect>
            <rect id="Rectangle" fill="#383838" x="484" y="59" width="20" height="65" rx="4"></rect>
            <rect id="Rectangle" fill="#383838" x="522" y="59" width="20" height="65" rx="4"></rect>
        </g>
    </g>
</svg>