<?xml version="1.0" encoding="UTF-8"?>
<svg width="600px" height="250px" viewBox="0 0 600 250" version="1.1" xmlns="http://www.w3.org/2000/svg" xmlns:xlink="http://www.w3.org/1999/xlink">
    <!-- Generator: Sketch 46.2 (44496) - http://www.bohemiancoding.com/sketch -->
    <title>starboard</title>
    <desc>Created with Sketch.</desc>
    <defs></defs>
    <g id="Page-1" stroke="none" stroke-width="1" fill="none" fill-rule="evenodd">
        <g id="starboard" fill="#333333">
            <polygon id="Star" transform="translate(55.305162, 71.277036) rotate(-19.000000) translate(-55.305162, -71.277036) " points="55.3051619 79.9296171 45.1334429 85.2772062 47.0760684 73.9508307 38.8469749 65.9294471 50.2193024 64.2769512 55.3051619 53.9718743 60.3910213 64.2769512 71.7633488 65.9294471 63.5342553 73.9508307 65.4768808 85.2772062"></polygon>
            <polygon id="Star" transform="translate(152.329066, 59.728925) rotate(14.000000) translate(-152.329066, -59.728925) " points="152.329066 68.3815056 142.157347 73.7290947 144.099972 62.4027192 135.870879 54.3813355 147.243206 52.7288396 152.329066 42.4237628 157.414925 52.7288396 168.787253 54.3813355 160.558159 62.4027192 162.500785 73.7290947"></polygon>
            <polygon id="Star" transform="translate(201.350388, 115.346492) rotate(-19.000000) translate(-201.350388, -115.346492) " points="201.350388 123.999073 191.178669 129.346662 193.121294 118.020287 184.892201 109.998903 196.264528 108.346407 201.350388 98.0413303 206.436247 108.346407 217.808575 109.998903 209.579481 118.020287 211.522107 129.346662"></polygon>
            <polygon id="Star" transform="translate(83.997653, 151.137799) rotate(14.000000) translate(-83.997653, -151.137799) " points="83.9976527 159.79038 73.8259338 165.137969 75.7685593 153.811594 67.5394658 145.79021 78.9117933 144.137714 83.9976527 133.832638 89.0835122 144.137714 100.45584 145.79021 92.2267462 153.811594 94.1693717 165.137969"></polygon>
            <polygon id="Star" points="107.998944 116.123422 97.8272249 121.471011 99.7698504 110.144635 91.5407569 102.123252 102.913084 100.470756 107.998944 90.1656791 113.084803 100.470756 124.457131 102.123252 116.228037 110.144635 118.170663 121.471011"></polygon>
            <polygon id="Star" points="128.327775 169.831744 118.156056 175.179333 120.098681 163.852957 111.869588 155.831574 123.241915 154.179078 128.327775 143.874001 133.413634 154.179078 144.785962 155.831574 136.556868 163.852957 138.499494 175.179333"></polygon>
            <polygon id="Star" points="226.370418 87.8052684 216.198699 93.1528575 218.141325 81.826482 209.912231 73.8050983 221.284559 72.1526024 226.370418 61.8475256 231.456278 72.1526024 242.828605 73.8050983 234.599512 81.826482 236.542137 93.1528575"></polygon>
            <polygon id="Star" points="176.330357 173.016195 166.158638 178.363784 168.101264 167.037409 159.87217 159.016025 171.244498 157.363529 176.330357 147.058452 181.416216 157.363529 192.788544 159.016025 184.55945 167.037409 186.502076 178.363784"></polygon>
            <polygon id="Star" points="246.699249 166.647292 236.52753 171.994881 238.470156 160.668506 230.241062 152.647122 241.61339 150.994626 246.699249 140.689549 251.785108 150.994626 263.157436 152.647122 254.928342 160.668506 256.870968 171.994881"></polygon>
            <polygon id="Star" transform="translate(271.719280, 87.028339) rotate(-19.000000) translate(-271.719280, -87.028339) " points="271.71928 95.6809196 261.547561 101.028509 263.490186 89.7021332 255.261093 81.6807496 266.63342 80.0282537 271.71928 69.7231768 276.805139 80.0282537 288.177467 81.6807496 279.948373 89.7021332 281.890999 101.028509"></polygon>
            <polygon id="Star" transform="translate(300.411770, 186.971829) rotate(14.000000) translate(-300.411770, -186.971829) " points="300.41177 195.624409 290.240052 200.971999 292.182677 189.645623 283.953584 181.624239 295.325911 179.971744 300.41177 169.666667 305.49763 179.971744 316.869957 181.624239 308.640864 189.645623 310.583489 200.971999"></polygon>
            <polygon id="Star" transform="translate(328.085522, 140.608427) rotate(14.000000) translate(-328.085522, -140.608427) " points="328.085522 149.261008 317.913803 154.608597 319.856428 143.282222 311.627335 135.260838 322.999662 133.608342 328.085522 123.303265 333.171381 133.608342 344.543709 135.260838 336.314615 143.282222 338.257241 154.608597"></polygon>
            <polygon id="Star" transform="translate(504.860717, 48.180813) rotate(-19.000000) translate(-504.860717, -48.180813) " points="504.860717 56.833394 494.688998 62.1809831 496.631624 50.8546076 488.40253 42.833224 499.774858 41.1807281 504.860717 30.8756512 509.946577 41.1807281 521.318904 42.833224 513.089811 50.8546076 515.032436 62.1809831"></polygon>
            <polygon id="Star" points="381.798043 188.767498 371.626324 194.115087 373.56895 182.788711 365.339856 174.767328 376.712184 173.114832 381.798043 162.809755 386.883903 173.114832 398.25623 174.767328 390.027137 182.788711 391.969762 194.115087"></polygon>
            <polygon id="Star" transform="translate(356.778013, 99.595190) rotate(-19.000000) translate(-356.778013, -99.595190) " points="356.778013 108.247771 346.606294 113.59536 348.548919 102.268984 340.319826 94.2476006 351.692153 92.5951046 356.778013 82.2900278 361.863872 92.5951046 373.2362 94.2476006 365.007106 102.268984 366.949732 113.59536"></polygon>
            <polygon id="Star" transform="translate(446.456996, 126.894604) rotate(14.000000) translate(-446.456996, -126.894604) " points="446.456996 135.547185 436.285277 140.894774 438.227903 129.568398 429.998809 121.547015 441.371137 119.894519 446.456996 109.589442 451.542856 119.894519 462.915183 121.547015 454.68609 129.568398 456.628715 140.894774"></polygon>
            <polygon id="Star" points="422.455705 48.9577428 412.283986 54.3053319 414.226612 42.9789564 405.997518 34.9575727 417.369846 33.3050768 422.455705 23 427.541565 33.3050768 438.913892 34.9575727 430.684799 42.9789564 432.627424 54.3053319"></polygon>
            <polygon id="Star" points="402.126874 142.404096 391.955155 147.751686 393.897781 136.42531 385.668687 128.403926 397.041015 126.75143 402.126874 116.446354 407.212734 126.75143 418.585061 128.403926 410.355968 136.42531 412.298593 147.751686"></polygon>
            <polygon id="Star" transform="translate(475.149487, 172.239265) rotate(-19.000000) translate(-475.149487, -172.239265) " points="475.149487 180.891846 464.977768 186.239435 466.920394 174.91306 458.6913 166.891676 470.063628 165.23918 475.149487 154.934104 480.235347 165.23918 491.607674 166.891676 483.378581 174.91306 485.321206 186.239435"></polygon>
        </g>
    </g>
</svg>